# xmcd
#
# Track frame offsets:
#	150
#	19097
#	36142
#	57625
#	75082
#	91802
#	105865
#	126422
#	149745
#	170057
#	188085
#	202045
#	218350
#	230590
#	243787
#	261610
#	284377
#	300632
#	323287
#
# Disc length: 4533 seconds
#
# Revision: 9
# Processed by: cddbd v1.5.2PL0 Copyright (c) Steve Scherf et al.
# Submitted via: EZCDAudioConverter 2.1.7.1
#
DISCID=0611b313
DTITLE=XTC - Upsy Daisy Assortment
DYEAR=1997
DGENRE=
TTITLE0=Making Plans For Nigel
TTITLE1=Life Begins At The Hop
TTITLE2=This World Over
TTITLE3=Seagulls Screaming Kiss Her, Kiss Her
TTITLE4=Generals and Majors
TTITLE5=Respectable Street
TTITLE6=Senses Working Overtime
TTITLE7=No Thugs In Our House
TTITLE8=Ball And Chain
TTITLE9=Love On A Farmboy's Wages
TTITLE10=Funk Pop A Roll
TTITLE11=Dear God
TTITLE12=Grass
TTITLE13=Earn Enough For Us
TTITLE14=The Mayor Of Simpleton
TTITLE15=Chalkhills And Children
TTITLE16=King For A Day
TTITLE17=The Ballad Of Peter Pumpkinhead
TTITLE18=The Disappointed
EXTD=
EXTT0=
EXTT1=
EXTT2=
EXTT3=
EXTT4=
EXTT5=
EXTT6=
EXTT7=
EXTT8=
EXTT9=
EXTT10=
EXTT11=
EXTT12=
EXTT13=
EXTT14=
EXTT15=
EXTT16=
EXTT17=
EXTT18=
PLAYORDER=
